<?xml version="1.0" encoding="UTF-8" standalone="no"?>
<!-- Created with Inkscape (http://www.inkscape.org/) -->

<svg
   xmlns:dc="http://purl.org/dc/elements/1.1/"
   xmlns:cc="http://creativecommons.org/ns#"
   xmlns:rdf="http://www.w3.org/1999/02/22-rdf-syntax-ns#"
   xmlns:svg="http://www.w3.org/2000/svg"
   xmlns="http://www.w3.org/2000/svg"
   xmlns:sodipodi="http://sodipodi.sourceforge.net/DTD/sodipodi-0.dtd"
   xmlns:inkscape="http://www.inkscape.org/namespaces/inkscape"
   width="236.67"
   height="58.037022"
   id="svg3357"
   version="1.1"
   inkscape:version="0.48.0 r9654"
   sodipodi:docname="royalgoldlogo.svg">
  <defs
     id="defs3359" />
  <sodipodi:namedview
     id="base"
     pagecolor="#ffffff"
     bordercolor="#666666"
     borderopacity="1.0"
     inkscape:pageopacity="0.0"
     inkscape:pageshadow="2"
     inkscape:zoom="2.2"
     inkscape:cx="127.26191"
     inkscape:cy="59.758164"
     inkscape:document-units="px"
     inkscape:current-layer="layer1"
     showgrid="false"
     inkscape:window-width="1250"
     inkscape:window-height="746"
     inkscape:window-x="-8"
     inkscape:window-y="-8"
     inkscape:window-maximized="1"
     showborder="false"
     inkscape:showpageshadow="false"
     fit-margin-top="0"
     fit-margin-left="0"
     fit-margin-right="0"
     fit-margin-bottom="0" />
  <metadata
     id="metadata3362">
    <rdf:RDF>
      <cc:Work
         rdf:about="">
        <dc:format>image/svg+xml</dc:format>
        <dc:type
           rdf:resource="http://purl.org/dc/dcmitype/StillImage" />
        <dc:title />
      </cc:Work>
    </rdf:RDF>
  </metadata>
  <g
     inkscape:label="Layer 1"
     inkscape:groupmode="layer"
     id="layer1"
     transform="translate(-101.103,-152.82416)">
    <path
       class="fil9"
       d="m 101.103,207.00882 c 0.30596,0.1624 4.56746,-0.0705 5.35564,-0.0252 0.41743,-0.7277 10.73757,-26.8283 11.04939,-27.60524 1.84575,-4.602 3.65308,-9.22297 5.51308,-13.81709 1.4641,-3.61541 3.19995,-6.23443 6.71545,-8.13536 4.7894,-2.59151 10.6547,-2.66341 15.71818,-0.33055 4.76091,2.19303 7.95531,6.23435 9.25211,9.74062 1.21572,3.28897 1.89814,7.57028 -0.003,12.32085 -0.99609,2.48809 -2.44297,4.46695 -4.25937,6.27123 -1.13382,1.12674 -2.531,2.13533 -3.88711,2.92296 -0.44282,0.25615 -0.98075,0.48956 -1.37457,0.73833 0.041,0.29857 0.25165,0.78757 0.45362,1.06026 1.59168,-0.56072 4.55538,-2.67503 5.84439,-3.87452 4.1612,-3.87022 5.94773,-8.54868 5.90359,-14.00333 -0.009,-1.08071 -0.0958,-2.37501 -0.28209,-3.34021 -0.42823,-2.2118 -0.96911,-4.18476 -2.14879,-6.20084 -2.00039,-3.41741 -4.72089,-6.07228 -8.57594,-7.93188 -5.45224,-2.62846 -10.18355,-2.14976 -14.35995,-1.30884 -3.571,0.71842 -8.65569,2.87756 -11.83836,7.49155 -1.39212,2.01836 -2.49975,5.38042 -3.44449,7.67853 -5.24446,12.76565 -10.31311,25.60561 -15.62956,38.34522 z"
       id="path4992"
       inkscape:connector-curvature="0"
       style="fill:#f6b541;fill-opacity:1;fill-rule:evenodd" />
    <path
       inkscape:connector-curvature="0"
       style="fill:#f6b541;fill-opacity:1;fill-rule:evenodd"
       class="fil9"
       d="m 125.0344,207.05767 c 0.48384,-0.92725 0.94781,-2.28693 1.36354,-3.28932 3.15558,-7.60799 6.24021,-15.26418 9.39721,-22.87074 0.4583,-1.10448 0.90666,-2.18344 1.35644,-3.295 0.41432,-1.02366 0.86552,-2.2926 1.33658,-3.26806 1.11098,-2.30678 3.33152,-3.94294 5.67692,-2.68959 3.24071,1.73257 3.0747,6.84804 0.83004,9.74321 -0.4512,0.5813 -1.66292,1.70705 -2.63059,1.99061 l 0.4739,1.13567 c 1.1876,-0.39274 2.74553,-1.5681 3.28896,-2.29544 0.8499,-1.13567 1.43164,-2.0218 1.82467,-3.77422 0.36181,-1.61205 0.32208,-3.48498 -0.0724,-5.06443 -0.40864,-1.64183 -1.09963,-2.65273 -2.01622,-3.53602 -1.75657,-1.69287 -5.98056,-2.46558 -8.59271,-0.97546 -2.50573,1.42916 -3.14139,3.6849 -4.4056,6.75163 -2.16521,5.25299 -4.41129,10.45637 -6.59068,15.72212 -1.08827,2.62721 -2.17797,5.24875 -3.29604,7.86036 -0.36182,0.84502 -3.23362,7.57963 -3.26342,7.86319 l 5.31511,-0.0113 z"
       id="path4799" />
    <path
       style="color:#000000;fill:#f6b541;fill-opacity:1;fill-rule:nonzero;stroke:none;stroke-width:0.5;marker:none;visibility:visible;display:inline;overflow:visible;enable-background:accumulate"
       d="m 138.6505,182.06118 -10.3375,25.006 20.675,0 -10.3375,-25.006 z"
       id="path3949"
       inkscape:connector-curvature="0" />
    <path
       inkscape:connector-curvature="0"
       style="fill:#f6b541;fill-opacity:1;fill-rule:evenodd"
       class="fil9"
       d="m 115.92417,207.06451 c 3.94254,-9.77306 8.0451,-19.60445 12.06099,-29.36918 1.31362,-3.19491 2.60057,-6.67314 4.03255,-9.78472 3.45076,-7.49479 13.50463,-5.29319 17.40716,0.70831 4.30928,6.62648 1.0819,14.75792 -5.74293,18.0145 l 0.4751,1.12497 c 7.90174,-3.47157 11.16079,-12.76465 6.60979,-20.24611 -2.00211,-3.2899 -5.3245,-5.63984 -9.09533,-6.42648 -4.04089,-0.84331 -8.99698,-0.0767 -12.01098,2.93992 -2.48888,2.48993 -3.9642,6.9448 -5.32617,10.19804 -1.52533,3.64657 -3.05567,7.29313 -4.58434,10.9397 -3.039,7.25146 -6.29638,14.60126 -9.16201,21.90272 l 5.33451,0 z"
       id="path4895" />
    <path
       inkscape:connector-curvature="0"
       style="fill:#f6b541;fill-opacity:1;fill-rule:evenodd"
       class="fil9"
       d="m 165.87289,190.6298 c 1.61127,-0.21183 2.95269,-0.25271 4.11351,0.50047 1.96327,1.27409 1.97601,4.76932 -0.0779,6.16976 -1.13319,0.77238 -2.34288,0.85538 -4.0356,0.63302 l 0,-7.30325 z m -4.70843,-0.30288 c 0.44053,0.0749 0.82015,-0.006 1.29892,0.12822 1.19907,0.33633 0.95331,1.808 0.95331,2.93096 l 0,10.00751 c 0,1.94303 0.26559,3.06598 -2.26569,3.03749 l 0.004,0.65408 c 1.16649,-0.008 2.33156,-0.044 3.50512,-0.0477 1.16082,-0.004 2.31456,0.0421 3.47821,0.0477 l -7.1e-4,-0.6547 c -2.45691,-0.002 -2.26356,-0.84794 -2.26356,-2.79717 0,-1.59122 0,-3.18181 0,-4.77303 l 2.23382,0 c 0.11757,0.0799 2.40025,3.77953 2.72392,4.24779 0.48444,0.70177 0.9441,1.38929 1.44837,2.05514 0.25426,0.33633 0.51773,0.65779 0.77482,0.98297 0.2486,0.31527 0.58218,0.63426 0.80387,0.9359 0.63034,0.0143 1.34354,-0.0409 1.99513,-0.0446 0.67355,-0.004 1.33293,0.0415 2.00647,0.0477 l -7.1e-4,-0.6547 c -1.32371,-10e-4 -2.06454,-0.76742 -2.61344,-1.34779 -0.96888,-1.0251 -2.38042,-3.1973 -3.19632,-4.4367 -0.25639,-0.3896 -0.50498,-0.77115 -0.76491,-1.14588 -0.22876,-0.33013 -0.58218,-0.79282 -0.76349,-1.13287 0.15794,-0.0966 0.40724,-0.14679 0.59634,-0.22917 1.26635,-0.55498 2.25719,-1.43265 2.69701,-2.69002 0.57439,-1.64263 -0.0418,-3.55407 -1.06874,-4.4144 -1.29326,-1.08332 -2.71047,-1.37629 -5.06256,-1.35461 -1.08221,0.01 -2.15945,0.0514 -3.24803,0.0452 -1.09708,-0.006 -2.1892,-0.0403 -3.28415,-0.0471 l 0.0149,0.64912 z"
       id="path5143" />
    <path
       inkscape:connector-curvature="0"
       style="fill:#f6b541;fill-opacity:1;fill-rule:evenodd"
       class="fil10"
       d="m 184.14306,193.65006 c 6.40575,-0.7378 7.9721,12.34925 1.47988,13.07005 -6.39795,0.71088 -7.97352,-12.32232 -1.47988,-13.07005 z m 7.82397,6.80754 c 0.19775,-3.87331 -2.90236,-7.32634 -6.79202,-7.46667 -3.96621,-0.14317 -7.16979,2.97178 -7.36895,6.89471 -0.19846,3.90025 2.88747,7.35753 6.81045,7.49219 3.98534,0.1375 7.15065,-2.99943 7.35123,-6.92094 z"
       id="path5244" />
    <path
       id="path5268"
       d="m 257.56506,193.65006 c 6.40575,-0.7378 7.9721,12.34925 1.47988,13.07005 -6.39795,0.71088 -7.97352,-12.32232 -1.47988,-13.07005 z m 7.82397,6.80754 c 0.19775,-3.87331 -2.90236,-7.32634 -6.79202,-7.46667 -3.96621,-0.14317 -7.16979,2.97178 -7.36895,6.89471 -0.19846,3.90025 2.88747,7.35753 6.81045,7.49219 3.98534,0.1375 7.15065,-2.99943 7.35123,-6.92094 z"
       class="fil10"
       style="fill:#f6b541;fill-opacity:1;fill-rule:evenodd"
       inkscape:connector-curvature="0" />
    <path
       inkscape:connector-curvature="0"
       style="fill:#f6b541;fill-opacity:1;fill-rule:evenodd"
       class="fil9"
       d="m 224.44484,207.04267 c 0.8592,0 1.71929,-0.004 2.57805,0.004 0.8313,0.008 1.72238,0.0518 2.54483,0.0345 l 0.72633,-3.02934 -0.44023,-0.0699 c -0.16918,0.73398 -0.6661,1.53614 -1.10279,1.86727 -0.62358,0.47279 -1.41059,0.56753 -2.36989,0.59365 -0.822,0.0221 -1.97837,-0.0195 -2.61214,-0.34929 -0.78347,-0.40727 -0.72855,-1.19393 -0.72855,-2.23736 0,-1.97838 0,-3.95633 0,-5.93471 0,-0.93895 -0.0509,-2.03284 0.0119,-2.95187 0.0726,-1.06777 0.73963,-1.17091 1.78661,-1.17136 l 0,-0.51706 -5.54096,4.4e-4 4.4e-4,0.51662 c 1.88892,8.9e-4 1.79945,0.56709 1.79945,2.2958 l 0,8.18359 c 0,1.38208 0.17229,2.34449 -1.79989,2.2834 l 0,0.52193 c 1.71574,-0.0372 3.42839,-0.0416 5.14679,-0.0416 z"
       id="path3029" />
    <path
       id="path3085"
       d="m 272.40084,207.04267 c 0.8592,0 1.71929,-0.004 2.57805,0.004 0.8313,0.008 1.72238,0.0518 2.54483,0.0345 l 0.72633,-3.02934 -0.44023,-0.0699 c -0.16918,0.73398 -0.6661,1.53614 -1.10279,1.86727 -0.62358,0.47279 -1.41059,0.56753 -2.36989,0.59365 -0.822,0.0221 -1.97837,-0.0195 -2.61214,-0.34929 -0.78347,-0.40727 -0.72855,-1.19393 -0.72855,-2.23736 0,-1.97838 0,-3.95633 0,-5.93471 0,-0.93895 -0.0509,-2.03284 0.0119,-2.95187 0.0726,-1.06777 0.73963,-1.17091 1.78661,-1.17136 l 0,-0.51706 -5.54096,4.4e-4 4.4e-4,0.51662 c 1.88892,8.9e-4 1.79945,0.56709 1.79945,2.2958 l 0,8.18359 c 0,1.38208 0.17229,2.34449 -1.79989,2.2834 l 0,0.52193 c 1.71574,-0.0372 3.42839,-0.0416 5.14679,-0.0416 z"
       class="fil9"
       style="fill:#f6b541;fill-opacity:1;fill-rule:evenodd"
       inkscape:connector-curvature="0" />
    <path
       inkscape:connector-curvature="0"
       style="fill:#f6b541;fill-opacity:1;fill-rule:evenodd"
       class="fil9"
       d="m 191.98983,193.79986 c 0.31912,0.09 0.74273,0.0164 1.11346,0.16236 0.30527,0.1202 0.47585,0.37067 0.66404,0.62428 0.3657,0.49275 0.7207,0.99683 1.08262,1.49273 0.72006,0.98676 1.44894,1.97793 2.15578,2.97287 l 0.80315,1.10633 c 0.1775,0.25551 0.14792,0.16363 0.14729,0.49716 -0.002,0.85838 0,1.71677 0,2.57515 0,0.62176 0.0699,1.95276 -0.0598,2.49396 -0.2052,0.85461 -1.02282,0.81748 -1.73785,0.83825 l -6.3e-4,0.51541 c 1.30858,0.0321 2.78144,-0.0711 4.1731,-0.0258 0.26562,0.009 1.17136,0.0579 1.369,0.0157 l 0,-0.49905 c -0.67159,-0.10572 -1.46404,0.0925 -1.71707,-0.77028 -0.14666,-0.5003 -0.0793,-1.83696 -0.0793,-2.43544 l -6.3e-4,-3.10817 c -0.002,-0.28005 0.0214,-0.23977 0.17624,-0.45185 0.86798,-1.19192 1.78254,-2.3939 2.66373,-3.59715 0.33738,-0.46065 1.22738,-1.75326 1.64784,-2.08239 0.42612,-0.33354 0.66531,-0.24921 0.92715,-0.33417 l 0,-0.49527 c -0.1517,-0.0283 -1.62015,0.029 -1.94493,0.0264 -0.65146,-0.005 -1.30354,-0.0327 -1.95374,-0.0365 l 0,0.52045 c 0.72447,0 1.79953,-0.0856 1.2727,1.01822 -0.23541,0.49276 -0.72384,1.06858 -1.04989,1.52546 -0.3531,0.49464 -0.72698,0.97858 -1.07946,1.47385 -0.30087,0.42289 -0.76601,1.12458 -1.09772,1.48706 -0.21527,-0.19886 -0.82833,-1.14661 -1.04485,-1.45119 -0.57907,-0.8137 -1.57734,-2.16484 -2.07081,-2.94707 -0.64076,-1.01508 -0.1624,-1.06606 0.79244,-1.10885 l 0.0139,-0.5173 c -0.8535,-0.0201 -1.72085,0.0441 -2.57561,0.0371 -0.40095,-0.003 -2.40441,-0.0503 -2.59198,-0.0327 l 0.001,0.50911 z"
       id="path3160" />
    <text
       xml:space="preserve"
       style="font-size:15px;font-style:normal;font-variant:normal;font-weight:normal;font-stretch:normal;text-align:start;line-height:125%;letter-spacing:0px;word-spacing:0px;writing-mode:lr-tb;text-anchor:start;fill:#000000;fill-opacity:1;stroke:none;font-family:Cambria;-inkscape-font-specification:Cambria"
       x="154.80588"
       y="248.02821"
       id="text3184"
       sodipodi:linespacing="125%"><tspan
         sodipodi:role="line"
         id="tspan3186"
         x="154.80588"
         y="248.02821" /></text>
    <path
       class="fil10"
       d="m 245.36021,205.70272 c -2.61174,1.68961 -6.0605,1.112 -8.1343,-1.15594 -2.0504,-2.24242 -2.78892,-5.68826 -2.13474,-8.61814 0.63007,-2.82358 2.55857,-5.20491 5.50696,-5.72228 1.48979,-0.26152 3.38569,-0.0468 4.72239,0.69597 1.29062,0.71724 2.0263,1.81577 2.35587,3.24031 l 0.54857,-0.008 -0.42666,-3.48553 c -3.49838,-1.28989 -7.32845,-2.09501 -10.82328,-0.31184 -3.13267,1.59818 -4.96194,4.79951 -4.85563,8.30701 0.10135,3.35583 2.13191,6.56708 5.21284,7.94627 3.6302,1.6244 7.27599,0.69809 10.83532,-0.5599 -0.0135,-0.62441 0.0475,-0.38909 -0.29271,-0.7229 -0.0489,0.0426 -0.0737,-0.69172 -0.0737,-0.91426 0,-0.66692 0,-1.33312 0,-2.00004 0,-0.54926 -0.0262,-1.23885 0.28704,-1.71725 0.36146,-0.5521 0.9072,-0.48193 1.4827,-0.52587 l 0.002,-0.6329 c -0.34871,-0.0489 -1.20912,0.0206 -1.61807,0.0262 -1.10636,0.0142 -2.19499,0.0149 -3.30064,-0.006 -0.48478,-0.009 -1.08651,-0.0532 -1.56491,-0.0262 l 0.008,0.63857 c 0.99012,0.0879 2.18436,-0.21475 2.25665,1.64283 0.0489,1.26934 0.006,2.63151 0.005,3.91077 z"
       id="path3250"
       inkscape:connector-curvature="0"
       style="fill:#f6b541;fill-opacity:1;fill-rule:evenodd"
       sodipodi:nodetypes="cccccccccccccsscccccccccc" />
    <path
       style="fill:#f6b541;fill-opacity:1;fill-rule:evenodd"
       d="m 318.88955,193.28388 0.0312,0.53029 c 2.80068,0.0608 2.375,1.39793 2.375,3.93036 l 0,6.26987 c -0.21102,-0.13075 -2.21037,-2.31854 -2.5,-2.65144 -0.76054,-0.87289 -1.66289,-1.83588 -2.46875,-2.68263 -0.83206,-0.87358 -1.68555,-1.76583 -2.46875,-2.65143 -0.40364,-0.45659 -0.80095,-0.87412 -1.21875,-1.34132 -0.0956,-0.10671 -1.15484,-1.38806 -1.15625,-1.3725 l -3.40625,0 0,0.49909 c 0.78249,0.10744 1.14384,-0.002 1.75,0.43671 0.38665,0.27989 0.60314,0.78191 0.65625,1.46609 0.10127,1.30826 0.0312,2.95895 0.0312,4.30468 0,1.42843 0.005,2.91169 -0.0312,4.33588 -0.0453,1.76908 -0.41122,2.11993 -2.09375,2.18353 l 0,0.49909 5.25,0.0311 c 10e-6,-0.0113 10e-5,-0.0198 0,-0.0311 -6e-5,-0.0166 -4.5e-4,-0.0458 0,-0.0624 -2.7e-4,-0.009 -8.2e-4,-0.0226 0,-0.0311 l 0,-0.0311 0,-0.0311 0,-0.0311 0,-0.0311 c -8.9e-4,-0.0101 0.004,-0.0211 0,-0.0311 -10e-4,-0.008 10e-4,-0.0246 0,-0.0311 -10e-4,-0.0133 9e-4,-0.049 0,-0.0624 l 0,-0.0312 0,-0.0311 0,-0.0311 c -0.006,-0.005 0.009,-0.10608 -0.0158,-0.0784 -0.0446,-0.0192 -0.12657,-0.016 -0.29671,-0.0311 -0.68335,0 -1.44621,-0.0943 -1.75,-0.73257 -0.33849,-0.71103 -0.28125,-2.18911 -0.28125,-3.08815 l 0,-6.70657 c 0.38381,0.21274 6.61966,7.31675 7.9375,8.64056 0.50561,0.50748 1.39153,1.54167 1.9375,2.15234 0.54813,0.57889 0.27317,0.4991 0.90625,0.4991 l 0,-7.67357 c 0,-1.26445 -0.0254,-2.54397 0,-3.80559 0.0446,-2.22851 0.95513,-1.82311 1.875,-1.96518 l 0,-0.49909 z"
       id="path3385"
       inkscape:connector-curvature="0"
       sodipodi:nodetypes="ccsccccccccccsccccccccccccccccccccsccccscccc" />
    <path
       inkscape:connector-curvature="0"
       style="fill:#f6b541;fill-opacity:1;fill-rule:evenodd"
       class="fil10"
       d="m 210.77741,195.28816 0.0298,-0.0127 2.10968,5.81418 -4.05145,-0.006 1.91273,-5.79576 z m -0.45693,-1.68893 c 0.1431,1.24261 -0.50156,2.66729 -0.88127,3.6924 -0.85224,2.30102 -1.61166,4.60912 -2.45327,6.89385 -0.48597,1.31841 -0.66236,2.28118 -2.30023,2.37753 l -7.1e-4,0.50087 4.72587,0.0213 -0.005,-0.5207 c -1.58473,0 -2.05584,-0.0857 -1.67046,-1.80299 0.22457,-0.9989 0.61137,-1.90854 0.84444,-2.85148 l 4.64937,0.006 c 0.20047,0.80762 0.65741,1.93121 0.94573,2.75371 0.10839,0.30888 0.42435,1.12855 0.28904,1.47073 -0.19127,0.48245 -0.82743,0.37972 -1.40055,0.43002 l -7.1e-4,0.49591 5.16793,0.0177 -0.005,-0.51645 c -0.90607,-0.0567 -1.37859,-0.15302 -1.69738,-0.85084 -0.26211,-0.57384 -0.4718,-1.21073 -0.69212,-1.83345 -1.08814,-3.07322 -2.23648,-6.2527 -3.36288,-9.30821 -0.19906,-0.53984 -0.43709,-1.36375 -0.67866,-1.84762 -0.65813,-7.1e-4 -0.14664,0.0319 -0.81751,0.50583 -0.20545,0.14523 -0.4208,0.25079 -0.65813,0.36626 z"
       id="path3525" />
    <path
       inkscape:connector-curvature="0"
       style="fill:#f6b541;fill-opacity:1;fill-rule:evenodd"
       class="fil9"
       d="m 282.96484,193.9941 c 1.70125,-0.12928 2.95975,-0.14686 4.39569,0.52338 1.17121,0.54718 1.99093,1.39263 2.57257,2.4887 0.94558,1.78218 0.98356,4.33553 0.1797,6.29633 -0.49433,1.20551 -1.30896,2.05095 -2.44784,2.61288 -0.56009,0.27671 -1.30953,0.45193 -2.00964,0.5092 -0.77438,0.0635 -1.61225,0.0607 -2.16157,-0.33739 -0.55725,-0.40372 -0.54195,-1.13973 -0.54195,-1.98234 0,-1.68692 0,-3.37384 0,-5.06077 0,-0.54832 -0.0306,-4.90142 0.013,-5.04999 z m -1.95068,10.29107 c 0,1.78389 -0.0113,2.12581 -1.81803,2.28401 l 0,0.516 c 0.84808,-0.0142 1.68935,-0.0363 2.53912,-0.0403 2.48073,-0.0125 4.63832,0.29656 6.98923,-0.6691 1.2585,-0.51713 2.26304,-1.35747 2.88832,-2.2721 0.68027,-0.99627 1.24377,-2.37133 1.2432,-3.91819 -10e-4,-3.10677 -2.03798,-5.23995 -4.1559,-6.16648 -1.4263,-0.6243 -2.71825,-0.74848 -4.4246,-0.7326 -1.70522,0.0159 -3.37245,0.0561 -5.0805,-0.002 l 0.007,0.51373 c 0.7466,0.007 1.23639,0.002 1.56236,0.49786 0.29535,0.45022 0.25,1.19813 0.25,1.78898 l 0,8.20156 z"
       id="path3626" />
    <path
       inkscape:connector-curvature="0"
       style="fill:#f6b541;fill-opacity:1;fill-rule:evenodd"
       class="fil9"
       d="m 337.773,203.44606 -0.45238,-0.11555 c -0.55379,2.92363 -3.35603,4.14157 -6.02142,2.98531 -2.36475,-1.02654 -3.7212,-3.53544 -3.83891,-6.03655 -0.1255,-2.68189 0.90619,-5.28721 3.56733,-6.28397 2.0556,-0.7699 5.04007,-0.49484 5.97321,1.89285 0.061,0.15525 0.11203,0.30909 0.15528,0.47002 0.0383,0.14462 0.061,0.38211 0.12125,0.49979 l 0.47934,0.006 -0.19358,-2.81587 c -1.2508,-0.51752 -3.07098,-1.01377 -4.4168,-1.05702 -1.51031,-0.0482 -3.0653,0.35234 -4.3551,1.14422 -2.69234,1.65323 -3.81834,4.3578 -3.25109,7.46079 0.53464,2.92576 2.48955,4.94905 5.39602,5.58142 1.68688,0.36722 3.18444,0.21197 4.8316,-0.24033 0.33681,-0.0922 0.7112,-0.20417 1.02957,-0.34525 0.5545,-0.246 0.52259,-0.13257 0.60555,-0.77061 0.10281,-0.78904 0.26803,-1.58304 0.37013,-2.37563 z"
       id="path3712" />
    <path
       inkscape:connector-curvature="0"
       style="fill:#f6b541;fill-opacity:1;fill-rule:evenodd"
       class="fil9"
       d="m 300.14792,207.08378 c 1.16983,-0.0142 2.33754,-0.0475 3.50809,-0.0489 1.15495,-10e-4 2.31487,0.0368 3.47478,0.0503 l 7.1e-4,-0.64991 c -2.43462,-0.0546 -2.26881,-0.71157 -2.26881,-2.89519 l 0,-10.35111 c 0,-1.23462 -0.20194,-2.49333 1.09118,-2.7747 0.32452,-0.0709 0.98419,-0.0447 1.17621,-0.10277 l 10e-4,-0.63432 c -1.167,0.008 -2.33187,0.0482 -3.501,0.0482 -1.16346,0 -2.32195,-0.0383 -3.484,-0.0482 l 0.007,0.63148 c 0.18352,0.061 0.86728,0.0347 1.19676,0.11057 1.27329,0.29129 1.06781,1.5819 1.06781,2.79526 l 0,10.3511 c 0,2.18362 0.14809,2.81581 -2.27165,2.87039 l 0,0.6492 z"
       id="path3798" />
    <path
       inkscape:connector-curvature="0"
       style="fill:#f6b541;fill-opacity:1;fill-rule:evenodd"
       class="fil9"
       d="m 293.43409,210.38357 0.13449,0.47761 c 0.62723,-0.0884 1.47485,-0.49687 1.97438,-0.88213 1.20249,-0.9269 1.69185,-2.70703 1.0098,-4.10417 -0.32266,-0.66174 -1.00923,-1.14558 -1.76079,-1.09969 -1.70315,0.10425 -1.67828,1.80676 -0.68487,2.25151 0.55773,0.24985 1.74214,-0.1983 1.57544,1.29402 -0.1215,1.08553 -1.27765,1.93027 -2.24845,2.06285 z"
       id="path3887" />
  </g>
</svg>
