<svg xmlns="http://www.w3.org/2000/svg" xmlns:xlink="http://www.w3.org/1999/xlink" width="153.737" height="27.918" viewBox="0 0 153.737 27.918"><defs><style>.a{fill:none;}.b{clip-path:url(#a);}.c{fill:#fff;}.d{fill:#f12e1b;}</style><clipPath id="a"><path class="a" d="M0,5.074H153.737V-22.844H0Z" transform="translate(0 22.844)"/></clipPath></defs><g transform="translate(0 22.844)"><g class="b" transform="translate(0 -22.844)"><g transform="translate(33.857 0.294)"><path class="c" d="M.732,2.468V-8.7H-3.294V-9.69A1.369,1.369,0,0,1-2.88-10.7a1.365,1.365,0,0,1,1.006-.416H7.52V-8.7H3.534V2.468Z" transform="translate(3.294 11.111)"/></g><g transform="translate(47.145 0.294)"><path class="c" d="M0,2.468V-9.69A1.369,1.369,0,0,1,.414-10.7a1.368,1.368,0,0,1,1.007-.416H6.592a4.823,4.823,0,0,1,3.276.948,3.664,3.664,0,0,1,1.1,2.88,3.7,3.7,0,0,1-.552,2.092,2.7,2.7,0,0,1-1.5,1.145,2.189,2.189,0,0,1,1.264.947,4.662,4.662,0,0,1,.434,2.013L10.7.533v.513a3.2,3.2,0,0,0,.039.513,1.2,1.2,0,0,0,.474.908H8.131a2.3,2.3,0,0,1-.236-.829A8.5,8.5,0,0,1,7.815.77L7.776-.69a3.19,3.19,0,0,0-.474-1.7,2.152,2.152,0,0,0-1.539-.434H2.8V2.468ZM2.8-5.19H6.079a2.407,2.407,0,0,0,1.579-.434,1.661,1.661,0,0,0,.513-1.342,1.659,1.659,0,0,0-.513-1.342,1.929,1.929,0,0,0-1.421-.474H2.8Z" transform="translate(0 11.111)"/></g><g transform="translate(67.796 0.294)"><path class="c" d="M.509,1.585V6.441h-2.8V-5.717a1.371,1.371,0,0,1,.414-1.007A1.371,1.371,0,0,1-.872-7.138H3.745a4.309,4.309,0,0,1,3.237,1.1,4.445,4.445,0,0,1,1.1,3.276A4.658,4.658,0,0,1,7.022.481a4.079,4.079,0,0,1-3.078,1.1Zm0-2.447H3.233a2.178,2.178,0,0,0,1.578-.474,1.876,1.876,0,0,0,.513-1.5A2.166,2.166,0,0,0,4.851-4.3a2.164,2.164,0,0,0-1.46-.474H.509Z" transform="translate(2.293 7.138)"/></g><g transform="translate(80.358 0.294)"><path class="c" d="M0,2.468V-9.69A1.369,1.369,0,0,1,.414-10.7a1.368,1.368,0,0,1,1.007-.416H2.8V-.058H9.433V2.468Z" transform="translate(0 11.111)"/></g><g transform="translate(117.456 0.294)"><path class="c" d="M0,2.468V-9.69A1.369,1.369,0,0,1,.414-10.7a1.368,1.368,0,0,1,1.007-.416H2.8V-.058H9.433V2.468Z" transform="translate(0 11.111)"/></g><g transform="translate(128.323 0.29)"><path class="c" d="M1.17.483,4.762,11.408H7.717L2.783-2.174H.576a1.338,1.338,0,0,0-1.347.909l-4.5,12.673H-2.3Z" transform="translate(5.268 2.174)"/></g><g transform="translate(141.551 0.001)"><path class="c" d="M1.818,2.18A4.239,4.239,0,0,1,.17,3.636a5.576,5.576,0,0,1-2.185.42A5.66,5.66,0,0,1-6.5,2.18,7.2,7.2,0,0,1-8.184-2.879,7.257,7.257,0,0,1-6.537-7.9,5.841,5.841,0,0,1-1.976-9.814,6.652,6.652,0,0,1,2.085-8.626,5.042,5.042,0,0,1,3.964-5.331H2.124A1.258,1.258,0,0,1,.937-6.06,2.967,2.967,0,0,0,.17-6.9a3.471,3.471,0,0,0-2.031-.537A3.167,3.167,0,0,0-4.466-6.25a5.44,5.44,0,0,0-.958,3.372,5.2,5.2,0,0,0,1,3.372,3.3,3.3,0,0,0,2.72,1.188A3.166,3.166,0,0,0,.438.954,3.558,3.558,0,0,0,1.511-1.154H-.1a1.331,1.331,0,0,1-.976-.4,1.33,1.33,0,0,1-.4-.978v-.881H4V3.751H3.274A1.268,1.268,0,0,1,1.933,2.678Z" transform="translate(8.184 9.814)"/></g><g transform="translate(105.437 0.294)"><path class="c" d="M.5.423H7.607V-1.906H-.84a1.371,1.371,0,0,0-1.007.414A1.373,1.373,0,0,0-2.261-.485V11.673H.5V5.919H3.461A1.417,1.417,0,0,0,4.882,4.5V3.59H.5V.423Z" transform="translate(2.261 1.906)"/></g><g transform="translate(92.484 0.197)"><path class="c" d="M0,2.485V-9.759a1.377,1.377,0,0,1,.418-1.013,1.377,1.377,0,0,1,1.013-.418H9.938v2.345H2.783V-5.9H8.11v.914a1.379,1.379,0,0,1-.418,1.013,1.377,1.377,0,0,1-1.013.418h-3.9v3.5H9.938V2.485Z" transform="translate(0 11.19)"/></g><g transform="translate(61.465 0.297)"><path class="c" d="M0,2.467H2.806V-11.108H1.421a1.361,1.361,0,0,0-1,.413A1.37,1.37,0,0,0,0-9.687V2.467Z" transform="translate(0 11.108)"/></g><g transform="translate(8.779 6.364)"><path class="d" d="M1.73.213A11.324,11.324,0,0,0-7.79,1.748V20.6H11.059V-.957A11.618,11.618,0,0,1,1.73.213M3.743,12.236c-3.243-.789-5.349.211-7.41,1.485l0-3.969c0-.022.02-.034.039-.043,6-2.709,9.014,2.274,14.638,1.61a9.036,9.036,0,0,1-7.263.918m7.263-6.208a9.032,9.032,0,0,1-7.263.917C.5,6.154-1.606,7.155-3.667,8.43l0-3.969a.055.055,0,0,1,.039-.044c6-2.709,9.014,2.276,14.638,1.611" transform="translate(7.79 0.957)"/></g></g><path class="d" d="M0,3.531H4.543V-15.9H0Z" transform="translate(0 1.543)"/><g class="b" transform="translate(0 -22.844)"><g transform="translate(0 0.29)"><path class="d" d="M1.6.722,1.6.759H1.6V.772c.01-.011.013-.024.028-.031,7.713-3.484,11.6,2.916,18.82,2.074V-3.249H-7.184V.757l8.78,0Z" transform="translate(7.184 3.249)"/></g></g><g transform="translate(8.779 -18.582)"><path class="c" d="M0,.007H.007L0-.031Z" transform="translate(0 0.031)"/></g><g class="b" transform="translate(0 -22.844)"><g transform="translate(27.628 6.354)"><path class="c" d="M0,0V.01L.02,0H0" transform="translate(0 0.001)"/></g><g transform="translate(47.898 21.019)"><path class="c" d="M.572.088a1.851,1.851,0,0,1,.5,1.386,2.238,2.238,0,0,1-.6,1.662,2.314,2.314,0,0,1-1.7.6h-.832v.4l.021,2.015h-.528l.031-1.985L-2.574-.387-.848-.4A1.949,1.949,0,0,1,.572.088M.156,2.732A1.87,1.87,0,0,0,.531,1.516,1.311,1.311,0,0,0-.909.053L-2.036.074l-.02,3.191,1.126.02A1.6,1.6,0,0,0,.156,2.732" transform="translate(2.574 0.398)"/></g><g transform="translate(54.437 21.02)"><path class="c" d="M.726,1.167v.071a1.691,1.691,0,0,1-.457.133l-.082-.04Q-.8-.09-1.48-1.267H-2.76v.543l.02,2.014h-.528l.031-1.983-.031-4.551,1.728-.01a1.992,1.992,0,0,1,1.423.471,1.782,1.782,0,0,1,.5,1.36A2.126,2.126,0,0,1,.015-2.183a2.208,2.208,0,0,1-1.047.793Q-.27-.152.726,1.167M-1.429-1.717A1.578,1.578,0,0,0-.159-3.394q0-1.36-1.442-1.412l-1.128.021L-2.75-1.738Z" transform="translate(3.268 5.255)"/></g></g><g transform="translate(61.337 -1.814)"><path class="c" d="M0,0,.031,4.55,0,6.535H3.415l.051-.419-.04-.061-1.591.031L.527,6.075.507,4.521.517,3.4l2.34.01.051-.419-.04-.051-1.084.01L.517,2.934.537.469,1.876.46,3.384.48,3.446.06,3.4,0Z"/></g><g class="b" transform="translate(0 -22.844)"><g transform="translate(66.924 20.977)"><path class="c" d="M.832.1.72.58.639.59A2.5,2.5,0,0,0-.969.017,1.982,1.982,0,0,0-2.632.754a3.4,3.4,0,0,0-.576,2.128A3.44,3.44,0,0,0-2.648,5a1.905,1.905,0,0,0,1.608.732A2.81,2.81,0,0,0,.741,5.091l.082.031-.042.5a3.282,3.282,0,0,1-1.851.583,2.412,2.412,0,0,1-1.98-.854,3.769,3.769,0,0,1-.7-2.439A3.777,3.777,0,0,1-3.02.431,2.544,2.544,0,0,1-.948-.444,2.993,2.993,0,0,1,.832.1" transform="translate(3.747 0.444)"/></g></g><g transform="translate(74.258 -1.814)"><path class="c" d="M0,0,.027,4.55,0,6.535H.473L.455,4.521.482,0Z"/></g><g class="b" transform="translate(0 -22.844)"><g transform="translate(77.636 20.968)"><path class="c" d="M.885.151A3.589,3.589,0,0,1,1.59,2.53,3.894,3.894,0,0,1,.845,5.083a2.6,2.6,0,0,1-2.114.895,2.461,2.461,0,0,1-2.012-.854,3.739,3.739,0,0,1-.7-2.439A3.753,3.753,0,0,1-3.246.193,2.611,2.611,0,0,1-1.136-.682,2.5,2.5,0,0,1,.885.151M-2.878.5a3.368,3.368,0,0,0-.577,2.128,3.511,3.511,0,0,0,.562,2.158,1.949,1.949,0,0,0,1.654.737,2.034,2.034,0,0,0,1.7-.747A3.463,3.463,0,0,0,1.049,2.6,3.342,3.342,0,0,0,.482.495,1.988,1.988,0,0,0-1.177-.221,2.043,2.043,0,0,0-2.878.5" transform="translate(3.985 0.682)"/></g><g transform="translate(85.889 21.029)"><path class="c" d="M.85.749a2.453,2.453,0,0,1-.6,1.821,2.349,2.349,0,0,1-1.772.644,2.264,2.264,0,0,1-1.717-.623,2.475,2.475,0,0,1-.585-1.8V-3.373h.519L-3.327.739a2.114,2.114,0,0,0,.458,1.493,1.774,1.774,0,0,0,1.376.511,1.81,1.81,0,0,0,1.38-.5A2,2,0,0,0,.351.789L.33-3.373H.86L.85-.039Z" transform="translate(3.826 3.373)"/></g><g transform="translate(93.276 20.988)"><path class="c" d="M.632.056.541.547l-.1.031A2.226,2.226,0,0,0-.778.2a1.5,1.5,0,0,0-.745.18,1.262,1.262,0,0,0-.488.466,1.145,1.145,0,0,0-.167.583A.874.874,0,0,0-2,1.979a1.729,1.729,0,0,0,.451.4,7.106,7.106,0,0,0,.726.384,9.745,9.745,0,0,1,.868.475,2.011,2.011,0,0,1,.562.543,1.363,1.363,0,0,1,.233.8,1.659,1.659,0,0,1-.258.895,1.814,1.814,0,0,1-.731.655,2.307,2.307,0,0,1-1.06.241,3.016,3.016,0,0,1-1.644-.461l.06-.543.071-.031a2.28,2.28,0,0,0,.752.445,2.379,2.379,0,0,0,.8.149,1.59,1.59,0,0,0,.781-.185,1.355,1.355,0,0,0,.517-.48,1.168,1.168,0,0,0,.182-.624A.956.956,0,0,0,.13,4.061a1.6,1.6,0,0,0-.456-.414q-.269-.163-.747-.4a8.886,8.886,0,0,1-.852-.46,1.848,1.848,0,0,1-.548-.533A1.359,1.359,0,0,1-2.7,1.467,1.592,1.592,0,0,1-2.447.6a1.751,1.751,0,0,1,.7-.624,2.25,2.25,0,0,1,1.03-.23A3.267,3.267,0,0,1,.632.056" transform="translate(2.847 0.251)"/></g></g><g transform="translate(102.687 -1.814)"><path class="c" d="M.977,0,.63.919l-1.7,4.123h-.051L-2.722,1l-.367-1h-.6L-4.4,6.535h.471l.193-2.025.4-3.591h.061l1.922,4.827h.479L1.12.919h.061l.4,3.621.174,1.994h.491L1.579,0Z" transform="translate(4.398)"/></g><g transform="translate(112.486 -1.814)"><path class="c" d="M0,0,.031,4.55,0,6.535H3.416l.051-.419-.042-.061-1.591.031L.527,6.075.507,4.521.517,3.4l2.342.01.051-.419-.042-.051-1.084.01L.517,2.934.538.469,1.876.46,3.385.48,3.446.06,3.4,0Z"/></g><g transform="translate(117.889 -1.814)"><path class="c" d="M.009,0-.042.408,0,.469,1.108.439H1.9L1.932,4.55,1.9,6.535H2.43l-.02-2.014L2.44.439h.794L4.323.469,4.373.06,4.323,0Z" transform="translate(0.042)"/></g><g transform="translate(123.552 -1.814)"><path class="c" d="M.45,0-2.028,6.535h.549l.154-.572L-.8,4.571.592,4.55l1.544.021.488,1.412.143.552h.548L1.05,0ZM-.615,4.1.7.612h.06L1.974,4.1l-1.32.011Z" transform="translate(2.028)"/></g><g transform="translate(131.596 -1.814)"><path class="c" d="M0,0,.029,4.55,0,6.535H3.022l.061-.4-.051-.061H.526L.5,4.521.535,0Z"/></g><g class="b" transform="translate(0 -22.844)"><g transform="translate(136.617 20.988)"><path class="c" d="M.632.056.541.547l-.1.031A2.226,2.226,0,0,0-.778.2a1.493,1.493,0,0,0-.745.18,1.253,1.253,0,0,0-.488.466,1.145,1.145,0,0,0-.167.583A.874.874,0,0,0-2,1.979a1.729,1.729,0,0,0,.451.4,7.106,7.106,0,0,0,.726.384,9.745,9.745,0,0,1,.868.475,2.011,2.011,0,0,1,.562.543,1.363,1.363,0,0,1,.233.8,1.669,1.669,0,0,1-.258.895,1.814,1.814,0,0,1-.731.655A2.308,2.308,0,0,1-1.2,6.378a3.015,3.015,0,0,1-1.643-.461l.06-.543.071-.031a2.28,2.28,0,0,0,.752.445,2.378,2.378,0,0,0,.8.149,1.592,1.592,0,0,0,.782-.185,1.355,1.355,0,0,0,.517-.48,1.168,1.168,0,0,0,.182-.624A.956.956,0,0,0,.13,4.061a1.593,1.593,0,0,0-.457-.414q-.269-.163-.745-.4a8.739,8.739,0,0,1-.852-.46,1.867,1.867,0,0,1-.549-.533A1.368,1.368,0,0,1-2.7,1.467,1.592,1.592,0,0,1-2.447.6a1.751,1.751,0,0,1,.7-.624,2.247,2.247,0,0,1,1.03-.23A3.267,3.267,0,0,1,.632.056" transform="translate(2.847 0.251)"/></g></g></g></svg>